<?xml version="1.0" encoding="UTF-8"?>
<svg id="Layer_2" data-name="Layer 2" xmlns="http://www.w3.org/2000/svg" version="1.1" viewBox="0 0 631 260.2">
  <defs>
    <style>
      .cls-1 {
        fill: none;
        stroke: #000;
        stroke-miterlimit: 10;
        stroke-width: 2px;
      }

      .cls-2 {
        fill: #000;
      }

      .cls-2, .cls-3, .cls-4, .cls-5, .cls-6 {
        stroke-width: 0px;
      }

      .cls-3 {
        fill: #f2f2f2;
      }

      .cls-4 {
        fill: #e0dc23;
      }

      .cls-5 {
        fill: #4a118c;
      }

      .cls-6 {
        fill: #fff;
      }
    </style>
  </defs>
  <g>
    <path class="cls-5" d="M103,137.5c32,1.3,57.7,27.8,57.7,60.1s-25.6,58.8-57.7,60.1v-120.2h0Z"/>
    <path class="cls-3" d="M105.5,140.1c29.5,2.5,52.7,27.3,52.7,57.5s-23.2,54.9-52.7,57.5v-114.9M100.5,134.9v125.3c34.6,0,62.7-28.1,62.7-62.7s-28.1-62.7-62.7-62.7h0Z"/>
  </g>
  <g>
    <path class="cls-6" d="M103,12.1c32,1.3,57.7,27.8,57.7,60.1s-25.6,58.8-57.7,60.1V12.1h0Z"/>
    <path class="cls-2" d="M105.5,14.8c29.5,2.5,52.7,27.3,52.7,57.4s-23.2,54.9-52.7,57.5V14.8M100.5,9.6v125.3c34.6,0,62.7-28.1,62.7-62.7s-28.1-62.7-62.7-62.7h0Z"/>
  </g>
  <g>
    <path class="cls-5" d="M98,132.4c-32-1.3-57.7-27.8-57.7-60.1S66,13.4,98,12.1v120.2h0Z"/>
    <path class="cls-3" d="M95.5,14.8v114.9c-29.5-2.5-52.7-27.3-52.7-57.4s23.2-54.9,52.7-57.4M100.5,9.6c-34.6,0-62.7,28.1-62.7,62.7s28.1,62.7,62.7,62.7V9.6h0Z"/>
  </g>
  <g>
    <path class="cls-5" d="M98,257.7c-32-1.3-57.7-27.8-57.7-60.1s25.6-58.8,57.7-60.1v120.2h0Z"/>
    <path class="cls-3" d="M95.5,140.1v114.9c-29.5-2.5-52.7-27.3-52.7-57.5s23.2-54.9,52.7-57.5M100.5,134.9c-34.6,0-62.7,28.1-62.7,62.7s28.1,62.7,62.7,62.7v-125.3h0Z"/>
  </g>
  <g>
    <path class="cls-4" d="M9,257.7V12.1h66.5c-23.6,9.8-40.1,33.1-40.1,60.2s20,54.9,47.3,62.7c-27.3,7.8-47.3,32.9-47.3,62.7s16.6,50.3,40.1,60.2H9h0Z"/>
    <path class="cls-3" d="M65.1,14.6c-19.4,11.9-32.3,33.3-32.3,57.7s17.4,52.6,42.1,62.7c-24.7,10.1-42.1,34.4-42.1,62.7s12.9,45.8,32.3,57.7H11.5V14.6h53.6M100.5,9.6H6.5v250.7h94c-34.6,0-62.7-28.1-62.7-62.7s28.1-62.7,62.7-62.7c-34.6,0-62.7-28.1-62.7-62.7S65.9,9.6,100.5,9.6h0Z"/>
  </g>
  <line class="cls-1" x1="100.5" y1="72.2" x2="159.4" y2="50.8"/>
  <line class="cls-1" x1="99.3" y1="73.4" x2="161" y2="62.5"/>
  <g>
    <path class="cls-2" d="M186.9,103.3v-54c0-2.8.6-4.9,1.9-6.3s2.9-2.1,5-2.1,3.8.7,5.1,2.1,1.9,3.5,1.9,6.3v54c0,2.8-.6,5-1.9,6.4s-3,2.1-5.1,2.1-3.6-.7-4.9-2.1c-1.3-1.4-1.9-3.5-1.9-6.3h0Z"/>
    <path class="cls-2" d="M230.2,49.3v24l27.2-28.4c1.3-1.4,2.4-2.4,3.3-3,.9-.6,2.1-1,3.7-1s3.6.6,4.8,1.8,1.9,2.6,1.9,4.3-1,4-3.1,6l-16.9,16,19.5,27.9c1.4,1.9,2.4,3.6,3.1,5.1s1,2.9,1,4.2-.6,2.9-1.8,4c-1.2,1.1-2.8,1.7-4.9,1.7s-3.5-.4-4.7-1.2c-1.2-.8-2.2-1.9-3.1-3.3-.8-1.4-1.6-2.6-2.2-3.7l-16.4-25.2-11.4,10.9v14.2c0,2.9-.6,5-2,6.4s-3,2.1-5,2.1-2.3-.3-3.4-.9c-1.1-.6-1.9-1.5-2.5-2.5-.4-.9-.7-1.9-.8-3s-.1-2.8-.1-5v-51c0-2.8.6-4.9,1.9-6.3s2.9-2.1,5-2.1,3.8.7,5.1,2.1,1.9,3.5,1.9,6.3h0Z"/>
    <path class="cls-2" d="M332.3,52.8h-31.3v16.8h28.8c2.1,0,3.7.5,4.8,1.4,1,.9,1.6,2.2,1.6,3.8s-.5,2.8-1.5,3.8-2.6,1.5-4.8,1.5h-28.8v19.5h32.4c2.2,0,3.8.5,4.9,1.5,1.1,1,1.7,2.4,1.7,4s-.5,2.9-1.7,4c-1.1,1-2.8,1.5-4.9,1.5h-37.7c-3,0-5.2-.7-6.5-2-1.3-1.3-2-3.5-2-6.5v-51.5c0-2,.3-3.6.9-4.9.6-1.3,1.5-2.2,2.8-2.8s2.9-.9,4.8-.9h36.6c2.2,0,3.9.5,4.9,1.5s1.6,2.3,1.6,3.9-.5,2.9-1.6,3.9c-1.1,1-2.7,1.5-4.9,1.5h0Z"/>
    <path class="cls-2" d="M388.9,49.3v24l27.2-28.4c1.3-1.4,2.4-2.4,3.3-3,.9-.6,2.1-1,3.7-1s3.6.6,4.8,1.8c1.2,1.2,1.8,2.6,1.8,4.3s-1,4-3.1,6l-16.9,16,19.5,27.9c1.4,1.9,2.4,3.6,3.1,5.1s1,2.9,1,4.2-.6,2.9-1.8,4-2.8,1.7-4.9,1.7-3.5-.4-4.7-1.2c-1.2-.8-2.2-1.9-3.1-3.3-.8-1.4-1.6-2.6-2.2-3.7l-16.4-25.2-11.4,10.9v14.2c0,2.9-.7,5-2,6.4s-3,2.1-5,2.1-2.3-.3-3.4-.9-1.9-1.5-2.5-2.5c-.4-.9-.7-1.9-.8-3s-.1-2.8-.1-5v-51c0-2.8.6-4.9,1.9-6.3s2.9-2.1,5-2.1,3.8.7,5.1,2.1,1.9,3.5,1.9,6.3h0Z"/>
    <path class="cls-2" d="M446.4,103.3v-54c0-2.8.6-4.9,1.9-6.3s2.9-2.1,5-2.1,3.8.7,5.1,2.1,1.9,3.5,1.9,6.3v54c0,2.8-.7,5-1.9,6.4s-3,2.1-5.1,2.1-3.6-.7-4.9-2.1-1.9-3.5-1.9-6.3h0Z"/>
    <path class="cls-2" d="M493.9,49.2l26.7,40.4v-40.8c0-2.6.6-4.6,1.7-6s2.7-2,4.6-2,3.6.7,4.7,2,1.7,3.3,1.7,6v53.9c0,6-2.5,9-7.5,9s-2.4-.2-3.4-.5c-1-.4-1.9-.9-2.8-1.7s-1.7-1.7-2.4-2.7-1.5-2.1-2.2-3.2l-26-39.9v40.2c0,2.6-.6,4.6-1.8,5.9-1.2,1.3-2.8,2-4.7,2s-3.5-.7-4.7-2c-1.2-1.4-1.8-3.3-1.8-5.9v-52.9c0-2.2.2-4,.8-5.3.6-1.4,1.6-2.6,3-3.4,1.4-.9,2.8-1.3,4.4-1.3s2.3.2,3.2.6,1.7.9,2.3,1.6c.7.7,1.4,1.6,2.1,2.7s1.4,2.2,2.2,3.4h0Z"/>
    <path class="cls-2" d="M611.1,82.8v13.1c0,1.8-.2,3.1-.5,4.2-.3,1-1,2-1.9,2.8-.9.8-2.1,1.6-3.5,2.4-4.2,2.2-8.1,3.9-12,4.9-3.8,1-8,1.5-12.5,1.5s-10.1-.8-14.4-2.4-8-4-11.1-7.1-5.4-6.8-7-11.2c-1.6-4.4-2.5-9.3-2.5-14.7s.8-10.2,2.4-14.6,3.9-8.2,7-11.3,6.8-5.4,11.3-7.1c4.4-1.6,9.4-2.4,15-2.4s8.7.6,12.2,1.9c3.5,1.2,6.4,2.8,8.7,4.6s3.9,3.9,5,5.9,1.7,3.9,1.7,5.6-.7,3.2-1.9,4.5c-1.3,1.2-2.8,1.9-4.7,1.9s-2-.2-2.9-.7-1.7-1.1-2.3-2c-1.7-2.7-3.2-4.7-4.3-6.1-1.2-1.4-2.8-2.5-4.8-3.5-2-.9-4.6-1.4-7.7-1.4s-6.1.6-8.6,1.7c-2.5,1.1-4.7,2.7-6.5,4.8-1.8,2.1-3.2,4.7-4.1,7.7-1,3.1-1.4,6.4-1.4,10.1,0,8,1.8,14.2,5.5,18.6,3.7,4.3,8.8,6.5,15.5,6.5s6.2-.4,9-1.3c2.8-.8,5.7-2,8.6-3.6v-11.1h-10.8c-2.6,0-4.5-.4-5.9-1.2s-2-2.1-2-4,.5-2.8,1.7-3.8,2.6-1.5,4.5-1.5h15.8c1.9,0,3.6.2,4.9.5,1.3.3,2.4,1.1,3.2,2.3s1.2,3,1.2,5.3h0Z"/>
  </g>
  <g>
    <path class="cls-2" d="M219.9,166.2c7.8,0,14.4,1.6,20,4.7s9.8,7.6,12.6,13.4,4.3,12.6,4.3,20.4-.8,11-2.4,15.8c-1.6,4.7-3.9,8.8-7,12.3s-7,6.1-11.5,8-9.8,2.8-15.7,2.8-11.1-.9-15.7-2.8c-4.6-1.9-8.5-4.5-11.6-8-3.1-3.4-5.4-7.6-7-12.4-1.6-4.8-2.4-10-2.4-15.7s.8-11,2.5-15.8,4-8.9,7.2-12.2,6.9-5.9,11.4-7.7c4.5-1.8,9.6-2.7,15.3-2.7h0ZM241.4,204.7c0-5.5-.9-10.2-2.6-14.2s-4.3-7-7.6-9.1c-3.3-2.1-7-3.1-11.3-3.1s-5.8.6-8.4,1.7c-2.6,1.1-4.8,2.8-6.6,5-1.9,2.2-3.3,5-4.4,8.3-1.1,3.4-1.6,7.2-1.6,11.4s.5,8.1,1.6,11.5c1.1,3.4,2.6,6.3,4.5,8.5,2,2.3,4.2,4,6.7,5.1s5.3,1.7,8.3,1.7,7.4-1,10.7-2.9c3.2-1.9,5.8-4.9,7.8-9,1.9-4,2.9-9,2.9-14.9h0Z"/>
    <path class="cls-2" d="M290,210.3h-5.3v24c0,3.2-.7,5.5-2.1,7-1.4,1.5-3.2,2.2-5.5,2.2s-4.3-.8-5.6-2.4c-1.3-1.6-2-3.9-2-6.9v-57.5c0-3.3.7-5.6,2.2-7.1s3.8-2.2,7.1-2.2h24.6c3.4,0,6.3.1,8.7.4,2.4.3,4.6.9,6.5,1.8,2.4,1,4.4,2.4,6.2,4.2,1.8,1.8,3.2,4,4.1,6.4.9,2.4,1.4,5,1.4,7.7,0,5.6-1.6,10-4.7,13.4s-7.9,5.7-14.3,7.1c2.7,1.4,5.2,3.5,7.7,6.3,2.5,2.8,4.6,5.8,6.5,8.9,1.9,3.1,3.4,6,4.5,8.5,1.1,2.5,1.6,4.3,1.6,5.2s-.3,2-.9,2.9-1.5,1.7-2.6,2.3-2.4.8-3.8.8-3.1-.4-4.3-1.2c-1.2-.8-2.1-1.8-3-3-.8-1.2-2-3-3.4-5.4l-6.1-10.1c-2.2-3.7-4.1-6.5-5.8-8.5s-3.5-3.3-5.2-4c-1.8-.7-4-1.1-6.7-1.1h0ZM298.7,178.9h-14v20.5h13.6c3.6,0,6.7-.3,9.2-.9,2.5-.6,4.4-1.7,5.7-3.2,1.3-1.5,2-3.6,2-6.2s-.5-3.9-1.6-5.5c-1-1.6-2.5-2.8-4.4-3.5-1.8-.8-5.2-1.1-10.5-1.1h0Z"/>
    <path class="cls-2" d="M354.2,167.5h19.7c5.1,0,9.5.5,13.2,1.4,3.7,1,7,2.7,10,5.4,7.8,6.7,11.7,16.8,11.7,30.4s-.4,8.6-1.2,12.3c-.8,3.7-2,7-3.6,10-1.6,3-3.7,5.6-6.3,8-2,1.8-4.2,3.2-6.6,4.3-2.4,1.1-4.9,1.9-7.7,2.3s-5.8.7-9.3.7h-19.7c-2.8,0-4.8-.4-6.2-1.2s-2.3-2-2.7-3.5c-.4-1.5-.6-3.5-.6-5.9v-54.8c0-3.3.7-5.6,2.2-7.1s3.8-2.2,7.1-2.2h0ZM360.1,179.5v50.7h11.5c2.5,0,4.5,0,5.9-.2s2.9-.5,4.4-1c1.5-.5,2.9-1.3,4-2.3,5.1-4.3,7.6-11.7,7.6-22.1s-1.1-12.9-3.3-16.6-5-6-8.2-7c-3.3-1-7.2-1.5-11.8-1.5h-10Z"/>
    <path class="cls-2" d="M471.4,179.2h-34.1v18.4h31.4c2.3,0,4,.5,5.2,1.6s1.7,2.4,1.7,4.1-.6,3.1-1.7,4.2-2.9,1.6-5.2,1.6h-31.4v21.3h35.3c2.4,0,4.2.5,5.4,1.7,1.2,1.1,1.8,2.6,1.8,4.4s-.6,3.2-1.8,4.3c-1.2,1.1-3,1.7-5.4,1.7h-41.2c-3.3,0-5.7-.7-7.1-2.2-1.5-1.5-2.2-3.8-2.2-7.1v-56.2c0-2.2.3-4,1-5.3.6-1.4,1.7-2.4,3-3,1.4-.6,3.1-.9,5.3-.9h40c2.4,0,4.2.5,5.4,1.6,1.2,1.1,1.8,2.5,1.8,4.2s-.6,3.2-1.8,4.3-3,1.6-5.4,1.6h0Z"/>
    <path class="cls-2" d="M512.2,210.3h-5.3v24c0,3.2-.7,5.5-2.1,7s-3.2,2.2-5.5,2.2-4.3-.8-5.6-2.4-2-3.9-2-6.9v-57.5c0-3.3.7-5.6,2.2-7.1s3.8-2.2,7.1-2.2h24.6c3.4,0,6.3.1,8.7.4,2.4.3,4.6.9,6.5,1.8,2.3,1,4.4,2.4,6.2,4.2s3.2,4,4.1,6.4c.9,2.4,1.4,5,1.4,7.7,0,5.6-1.6,10-4.7,13.4-3.2,3.3-7.9,5.7-14.3,7.1,2.7,1.4,5.2,3.5,7.7,6.3,2.5,2.8,4.6,5.8,6.5,8.9s3.4,6,4.5,8.5c1.1,2.5,1.6,4.3,1.6,5.2s-.3,2-.9,2.9-1.5,1.7-2.6,2.3-2.3.8-3.8.8-3.1-.4-4.3-1.2c-1.2-.8-2.2-1.8-3-3-.8-1.2-2-3-3.4-5.4l-6.1-10.1c-2.2-3.7-4.1-6.5-5.8-8.5-1.7-1.9-3.5-3.3-5.2-4s-4-1.1-6.7-1.1h0ZM520.8,178.9h-14v20.5h13.6c3.6,0,6.7-.3,9.2-.9s4.4-1.7,5.7-3.2c1.3-1.5,2-3.6,2-6.2s-.5-3.9-1.6-5.5c-1-1.6-2.5-2.8-4.4-3.5-1.8-.8-5.2-1.1-10.5-1.1h0Z"/>
    <path class="cls-2" d="M623.7,219.8c0,4.5-1.2,8.6-3.5,12.2-2.3,3.6-5.7,6.4-10.2,8.5s-9.8,3.1-16,3.1-13.5-1.4-18.3-4.2c-3.4-2-6.2-4.7-8.3-8-2.1-3.4-3.2-6.6-3.2-9.8s.6-3.4,1.9-4.7c1.3-1.3,2.9-2,4.9-2s3,.5,4,1.5,2,2.5,2.8,4.5c1,2.4,2,4.4,3.1,6,1.1,1.6,2.7,2.9,4.7,4,2,1,4.6,1.6,7.9,1.6s8.1-1,10.9-3.1c2.8-2.1,4.2-4.7,4.2-7.8s-.8-4.5-2.3-6c-1.5-1.5-3.5-2.7-5.9-3.5-2.4-.8-5.6-1.7-9.6-2.6-5.4-1.3-9.9-2.7-13.5-4.4s-6.5-4-8.6-6.9-3.2-6.5-3.2-10.8,1.1-7.8,3.4-11c2.2-3.2,5.5-5.6,9.7-7.4s9.2-2.6,15-2.6,8.6.6,11.9,1.7c3.3,1.1,6.1,2.6,8.3,4.5s3.8,3.9,4.8,5.9c1,2.1,1.5,4.1,1.5,6.1s-.6,3.4-1.9,4.9c-1.3,1.5-2.9,2.2-4.8,2.2s-3-.4-4-1.3-1.9-2.3-2.9-4.3c-1.4-2.8-3-5-4.9-6.6s-5-2.4-9.2-2.4-7.1.9-9.5,2.6-3.6,3.8-3.6,6.2.4,2.8,1.2,3.9c.8,1.1,1.9,2,3.4,2.8s2.9,1.4,4.3,1.8c1.5.4,3.9,1.1,7.2,1.9,4.2,1,8,2.1,11.5,3.3s6.3,2.6,8.7,4.3c2.4,1.7,4.3,3.9,5.6,6.5,1.3,2.6,2,5.8,2,9.6h0Z"/>
  </g>
</svg>